<?xml version="1.0" standalone="no"?>
<!DOCTYPE svg PUBLIC "-//W3C//DTD SVG 20010904//EN"
 "http://www.w3.org/TR/2001/REC-SVG-20010904/DTD/svg10.dtd">
<svg version="1.0" xmlns="http://www.w3.org/2000/svg"
 width="512.000000pt" height="512.000000pt" viewBox="0 0 512.000000 512.000000"
 preserveAspectRatio="xMidYMid meet">
<metadata>
Created by potrace 1.16, written by Peter Selinger 2001-2019
</metadata>
<g transform="translate(0.000000,512.000000) scale(0.100000,-0.100000)"
fill="#000000" stroke="none">
<path d="M1720 4379 c-288 -75 -508 -297 -581 -588 -30 -119 -24 -320 13 -433
l26 -78 -409 0 c-392 0 -410 -1 -428 -19 -11 -11 -22 -35 -25 -53 -9 -56 -156
-1940 -156 -1995 0 -87 12 -93 180 -93 l139 0 12 -42 c31 -119 130 -244 235
-300 143 -77 325 -77 468 0 105 56 204 181 235 300 l12 42 1119 0 1119 0 12
-42 c31 -119 130 -244 235 -300 143 -77 325 -77 468 0 105 56 204 181 235 300
l12 42 139 0 c127 0 142 2 160 20 13 13 20 33 20 56 0 51 -396 1483 -416 1506
-16 17 -43 18 -456 18 l-438 0 0 28 c0 15 7 104 15 197 21 239 20 290 -5 315
-19 19 -33 20 -509 20 l-489 0 26 78 c37 113 43 314 13 433 -74 293 -295 515
-585 589 -107 27 -290 27 -396 -1z m410 -183 c178 -61 326 -211 391 -396 20
-55 24 -85 24 -195 0 -111 -4 -141 -24 -203 -60 -184 -219 -343 -402 -403 -63
-20 -93 -24 -204 -24 -110 0 -140 4 -195 24 -188 66 -341 221 -401 402 -21 64
-24 92 -24 209 1 123 3 141 28 205 131 332 478 496 807 381z m-825 -1117 c80
-105 266 -220 419 -259 109 -27 283 -27 392 0 153 38 326 145 415 257 l34 42
473 0 473 1 -6 -47 c-3 -27 -34 -417 -70 -868 -35 -451 -67 -844 -70 -872 l-6
-53 -959 0 -959 0 -12 42 c-31 119 -130 244 -235 300 -143 77 -325 77 -468 0
-105 -56 -204 -181 -235 -300 l-12 -42 -75 0 -75 0 5 33 c3 17 12 133 21 257
9 124 18 235 21 248 l4 22 590 0 c577 0 590 0 610 20 27 27 27 93 0 120 -20
20 -33 20 -605 20 -322 0 -585 3 -585 6 0 19 80 1017 85 1062 l6 52 397 0 397
-1 30 -40z m3184 -787 c40 -147 76 -273 78 -279 4 -10 -85 -13 -421 -13 -413
0 -427 -1 -446 -20 -24 -24 -27 -87 -6 -116 14 -18 34 -19 468 -24 l453 -5 52
-190 c29 -104 64 -229 77 -277 l24 -88 -64 0 -63 0 -12 42 c-31 119 -130 244
-235 300 -143 77 -325 77 -468 0 -105 -56 -204 -181 -235 -300 l-12 -42 -75 0
-76 0 6 28 c2 15 26 303 53 640 l47 612 391 0 390 0 74 -268z m-3404 -807 c68
-30 115 -73 151 -137 26 -48 29 -62 29 -148 0 -87 -3 -100 -30 -149 -55 -100
-142 -152 -261 -159 -72 -4 -89 -1 -136 20 -75 35 -122 79 -158 150 -26 52
-30 72 -30 138 0 66 4 86 30 138 77 154 250 216 405 147z m3200 0 c68 -30 115
-73 151 -137 26 -48 29 -62 29 -148 0 -87 -3 -100 -30 -149 -55 -100 -142
-152 -261 -159 -72 -4 -89 -1 -136 20 -75 35 -122 79 -158 150 -26 52 -30 72
-30 138 0 66 4 86 30 138 77 154 250 216 405 147z"/>
<path d="M1860 4060 c-19 -19 -20 -33 -20 -240 l0 -220 -180 0 c-167 0 -181
-1 -200 -20 -13 -13 -20 -33 -20 -60 0 -27 7 -47 20 -60 19 -19 33 -20 260
-20 227 0 241 1 260 20 19 19 20 33 20 300 0 267 -1 281 -20 300 -13 13 -33
20 -60 20 -27 0 -47 -7 -60 -20z"/>
<path d="M1220 2620 c-13 -13 -20 -33 -20 -60 0 -27 7 -47 20 -60 20 -20 33
-20 660 -20 627 0 640 0 660 20 13 13 20 33 20 60 0 27 -7 47 -20 60 -20 20
-33 20 -660 20 -627 0 -640 0 -660 -20z"/>
<path d="M660 2300 c-13 -13 -20 -33 -20 -60 0 -27 7 -47 20 -60 20 -20 33
-20 660 -20 627 0 640 0 660 20 13 13 20 33 20 60 0 27 -7 47 -20 60 -20 20
-33 20 -660 20 -627 0 -640 0 -660 -20z"/>
</g>
</svg>
