<?xml version="1.0" standalone="no"?>
<!DOCTYPE svg PUBLIC "-//W3C//DTD SVG 20010904//EN"
 "http://www.w3.org/TR/2001/REC-SVG-20010904/DTD/svg10.dtd">
<svg version="1.0" xmlns="http://www.w3.org/2000/svg"
 width="512.000000pt" height="512.000000pt" viewBox="0 0 512.000000 512.000000"
 preserveAspectRatio="xMidYMid meet">
<metadata>
Created by potrace 1.16, written by Peter Selinger 2001-2019
</metadata>
<g transform="translate(0.000000,512.000000) scale(0.100000,-0.100000)"
fill="#000000" stroke="none">
<path d="M1826 5101 c-15 -10 -37 -32 -47 -47 -18 -28 -19 -59 -19 -669 l-1
-640 -60 -45 c-92 -68 -237 -224 -306 -327 -484 -725 -213 -1712 570 -2078
214 -100 348 -129 597 -129 152 0 202 4 282 22 435 96 785 366 977 754 105
214 146 397 145 648 -1 231 -40 405 -136 608 -85 178 -256 390 -407 502 l-60
45 -1 640 c0 610 -1 641 -19 669 -10 15 -32 37 -47 47 -28 18 -60 19 -734 19
-674 0 -706 -1 -734 -19z m1234 -431 l0 -150 -500 0 -500 0 0 150 0 150 500 0
500 0 0 -150z m0 -660 l0 -200 -500 0 -500 0 0 200 0 200 500 0 500 0 0 -200z
m167 -555 c341 -256 504 -722 399 -1138 -51 -199 -137 -355 -277 -501 -146
-154 -324 -259 -524 -313 -89 -24 -118 -27 -265 -27 -147 0 -176 3 -263 27
-203 54 -380 159 -526 313 -409 428 -412 1095 -7 1522 38 40 96 93 129 117
l59 45 608 0 608 0 59 -45z"/>
<path d="M391 3913 c-48 -25 -73 -63 -79 -121 -5 -54 10 -92 50 -128 46 -43
511 -306 549 -311 110 -15 199 87 170 195 -6 21 -23 50 -38 64 -16 14 -138 90
-273 169 -210 122 -252 143 -295 146 -35 3 -60 -1 -84 -14z"/>
<path d="M4606 3923 c-34 -9 -499 -283 -529 -311 -103 -98 -11 -279 132 -259
35 4 500 266 545 305 68 62 60 187 -17 239 -33 23 -97 36 -131 26z"/>
<path d="M75 2691 c-55 -34 -69 -57 -73 -124 -4 -77 19 -119 81 -147 38 -18
67 -20 337 -20 268 0 299 2 337 19 114 52 115 218 1 277 -22 11 -91 14 -340
14 -287 0 -315 -2 -343 -19z"/>
<path d="M4355 2691 c-44 -27 -63 -52 -73 -96 -17 -79 14 -145 81 -176 38 -17
69 -19 337 -19 270 0 299 2 337 20 62 28 85 70 81 147 -3 49 -9 68 -28 89 -51
53 -55 54 -392 54 -287 0 -315 -2 -343 -19z"/>
<path d="M914 1771 c-35 -9 -496 -273 -532 -305 -76 -68 -68 -199 15 -247 40
-24 83 -31 121 -20 51 15 514 287 547 321 37 39 47 126 20 177 -31 57 -106 89
-171 74z"/>
<path d="M4129 1770 c-78 -23 -114 -79 -107 -164 7 -79 27 -96 298 -253 298
-173 284 -166 342 -161 90 9 142 72 135 164 -6 90 0 85 -437 335 -136 78 -183
94 -231 79z"/>
<path d="M1585 1090 c-17 -5 -43 -22 -57 -37 -15 -16 -92 -143 -172 -283 -126
-220 -146 -260 -146 -298 0 -49 17 -86 54 -122 21 -19 40 -25 89 -28 100 -6
107 2 281 303 142 247 150 263 150 315 1 42 -5 63 -22 88 -39 54 -115 80 -177
62z"/>
<path d="M3435 1085 c-52 -18 -93 -67 -101 -121 -8 -54 9 -91 178 -384 146
-252 158 -264 255 -258 49 3 68 9 89 28 38 36 54 73 54 123 0 38 -19 77 -146
298 -140 244 -171 292 -204 309 -32 16 -86 19 -125 5z"/>
<path d="M2490 831 c-19 -10 -45 -33 -57 -51 -23 -33 -23 -37 -23 -359 0 -303
1 -328 19 -355 31 -46 69 -66 131 -66 62 0 100 20 131 66 18 27 19 52 19 355
0 322 0 326 -23 360 -43 65 -129 87 -197 50z"/>
</g>
</svg>
